<?xml version="1.0" encoding="UTF-8" standalone="no"?><!DOCTYPE svg PUBLIC "-//W3C//DTD SVG 1.1//EN" "http://www.w3.org/Graphics/SVG/1.1/DTD/svg11.dtd"><svg width="100%" height="100%" viewBox="0 0 200 200" version="1.1" xmlns="http://www.w3.org/2000/svg" xmlns:xlink="http://www.w3.org/1999/xlink" xml:space="preserve" xmlns:serif="http://www.serif.com/" style="fill-rule:evenodd;clip-rule:evenodd;stroke-linejoin:round;stroke-miterlimit:1.41421;"><g><path d="M102.239,191.408l-0.028,3.956c5.145,-0.168 10.286,-0.748 15.335,-1.73l-3.825,-15.998l2.194,-0.472c5.77,-1.241 11.419,-3.127 16.791,-5.608l1.964,-0.907l5.29,10.862l-2.047,0.925c-2.208,0.996 -4.478,1.916 -6.772,2.741l1.204,3.771c4.842,-1.731 9.551,-3.854 14.05,-6.332l-8.615,-14.051l1.941,-1.118c5.102,-2.944 9.889,-6.465 14.229,-10.467l1.571,-1.448l8.479,8.614l-1.656,1.519c-1.782,1.637 -3.647,3.215 -5.562,4.712l2.338,3.206c4.049,-3.152 7.847,-6.634 11.333,-10.387l-12.629,-10.656l1.488,-1.667c2.554,-2.864 8.753,-10.194 11.132,-16.419l0.83,-2.172l12.261,5.513l-0.971,2.007c-1.051,2.17 -2.198,4.318 -3.425,6.407l3.363,2.13c2.596,-4.406 4.838,-9.03 6.687,-13.791l-15.697,-5.306l0.763,-2.092c2.013,-5.502 3.41,-11.247 4.152,-17.076l0.268,-2.11l12.08,1.222l-0.289,2.219c-0.31,2.388 -0.719,4.784 -1.221,7.15l3.867,0.975c1.069,-4.994 1.732,-10.081 1.98,-15.175l-16.584,-0.15l0.063,-2.225c0.167,-5.85 -0.328,-11.74 -1.469,-17.504l-0.417,-2.108l11.904,-2.487l0.416,2.189c0.447,2.366 0.803,4.771 1.061,7.175l3.983,-0.255c-0.537,-5.074 -1.489,-10.116 -2.837,-15.039l-15.823,4.924l-0.632,-2.135c-1.661,-5.616 -3.963,-11.069 -6.842,-16.202l-1.042,-1.86l10.469,-6.096l1.092,1.958c1.174,2.107 2.275,4.281 3.28,6.481l3.701,-1.481c-2.118,-4.652 -4.617,-9.142 -7.458,-13.397l-13.462,9.602l-1.277,-1.83c-0.474,-0.682 -0.926,-1.337 -1.363,-1.972c-2.707,-3.928 -4.843,-7.031 -8.505,-10.373l-1.503,-1.372l8.305,-10.368l7.5,6.043l2.599,-2.429c-4.286,-4.995 -8.338,-8.218 -10.494,-9.773l-10.125,13.017l-1.741,-1.331c-5.223,-3.994 -16.699,-9.02 -16.815,-9.071l-1.952,-0.851l4.319,-10.576l9.152,3.979l2.171,-4.054c-4.683,-2.678 -11.238,-4.671 -14.538,-5.577l-4.128,15.425l-2.239,-0.772c-6.877,-2.371 -18.491,-3.301 -18.607,-3.31l-2.075,-0.162l0.256,-10.401l1.967,-0.162c1.452,-0.121 5.345,0.199 7.838,0.432l0.922,-4.568c-5.598,-1.133 -12.209,-1.008 -15.524,-0.843l0.957,16.758l-2.437,-0.115c-6.176,-0.295 -17.463,2.809 -17.576,2.841l-2.084,0.576l-3.517,-11.762l2.143,-0.6c2.336,-0.652 4.722,-1.218 7.115,-1.688l-0.61,-3.909c-5.052,0.982 -10.034,2.37 -14.859,4.141l6.358,15.184l-2.089,0.816c-5.495,2.139 -10.767,4.898 -15.67,8.197l-1.776,1.196l-7.057,-9.794l1.871,-1.252c2.011,-1.347 4.095,-2.627 6.219,-3.818l-1.819,-3.521c-4.484,2.505 -8.773,5.373 -12.796,8.557l10.848,12.438l-1.726,1.422c-4.539,3.744 -8.67,8.005 -12.28,12.664l-1.32,1.704l-9.751,-7.213l1.384,-1.755c1.494,-1.898 3.08,-3.752 4.73,-5.533l-2.825,-2.795c-3.487,3.753 -6.676,7.794 -9.511,12.052l14.187,8.516l-1.199,1.881c-3.153,4.947 -5.758,10.262 -7.743,15.798l-0.72,2.004l-11.532,-3.758l0.76,-2.105c0.818,-2.266 1.735,-4.52 2.737,-6.725l-3.566,-1.774c-2.122,4.649 -3.87,9.478 -5.213,14.402l16.168,3.669l-0.543,2.159c-0.932,3.71 -3.013,13.05 -2.223,19.661l0.276,2.305l-13.444,0.727l-0.074,-2.226c-0.079,-2.404 -0.062,-4.835 0.052,-7.252l-3.975,-0.349c-0.249,5.098 -0.083,10.224 0.496,15.294l16.395,-2.481l0.296,2.204c0.78,5.803 2.219,11.539 4.276,17.047l0.745,1.994l-11.283,4.447l-0.777,-2.1c-0.839,-2.26 -1.593,-4.572 -2.248,-6.9l-3.885,0.906c1.378,4.918 3.16,9.733 5.314,14.365l14.78,-7.462l0.981,2.004c2.577,5.264 5.761,10.262 9.459,14.851l1.353,1.68l-9.4,7.657l-1.388,-1.753c-1.501,-1.893 -2.937,-3.863 -4.285,-5.877l-3.413,2.049c2.84,4.257 6.032,8.292 9.523,12.041l11.739,-11.614l1.555,1.605c4.091,4.22 8.672,8.001 13.617,11.237l1.792,1.172l-6.444,10.2l-1.881,-1.237c-2.021,-1.327 -4.008,-2.752 -5.93,-4.245l-2.591,3.008c4.045,3.156 8.354,5.994 12.856,8.467l7.466,-14.681l1.985,1.039c5.222,2.734 10.769,4.897 16.489,6.429l0.239,0.064l1.93,1.017l-2.258,11.522l-2.181,-0.45c-2.379,-0.491 -4.757,-1.082 -7.096,-1.761l-1.281,3.746c4.938,1.443 10.003,2.494 15.109,3.132l1.436,-16.38l2.233,0.236c5.87,0.617 11.831,0.586 17.716,-0.097l2.133,-0.246l1.696,11.917l-2.241,0.254c-2.41,0.274 -4.855,0.454 -7.296,0.538m-11.691,8.592l-2.218,-0.227c-6.899,-0.701 -13.747,-2.121 -20.354,-4.219l-2.129,-0.676l4.099,-11.999l2.057,0.65c2.149,0.679 4.343,1.28 6.547,1.794l0.72,-3.669c-4.72,-1.369 -9.317,-3.146 -13.714,-5.3l-7.495,14.712l-1.976,-1.027c-6.143,-3.19 -11.971,-7.029 -17.32,-11.406l-1.724,-1.411l8.298,-9.634l1.667,1.36c1.736,1.416 3.54,2.776 5.384,4.058l1.771,-2.8c-3.926,-2.713 -7.616,-5.754 -11.013,-9.076l-11.777,11.633l-1.551,-1.59c-4.822,-4.939 -9.138,-10.398 -12.831,-16.221l-1.19,-1.876l10.931,-6.562l1.151,1.81c1.201,1.886 2.485,3.742 3.833,5.537l2.576,-2.099c-2.885,-3.774 -5.446,-7.79 -7.64,-11.983l-0.15,0.076l-14.672,7.391l-0.981,-1.986c-3.05,-6.171 -5.458,-12.683 -7.161,-19.353l-0.548,-2.148l12.439,-2.901l0.532,2.074c0.555,2.157 1.199,4.311 1.922,6.43l3.097,-1.221c-1.545,-4.489 -2.707,-9.105 -3.464,-13.776l-0.167,0.025l-16.27,2.451l-0.303,-2.191c-0.94,-6.813 -1.164,-13.746 -0.667,-20.603l0.16,-2.21l12.729,1.117l-0.151,2.134c-0.158,2.226 -0.23,4.476 -0.214,6.713l4.348,-0.234c-0.225,-5.677 0.949,-12.228 1.982,-16.752l-16.198,-3.687l0.531,-2.148c1.654,-6.677 4.016,-13.205 7.022,-19.402l0.969,-1.997l11.423,5.678l-0.933,1.93c-0.971,2.009 -1.87,4.072 -2.684,6.155l3.165,1.032c1.717,-4.427 3.813,-8.708 6.252,-12.773l-14.215,-8.548l1.185,-1.873c3.684,-5.825 7.995,-11.288 12.814,-16.235l1.551,-1.594l9.046,8.946l-1.497,1.542c-1.559,1.608 -3.069,3.288 -4.505,5.017l2.673,1.976c3.005,-3.681 6.326,-7.108 9.906,-10.224l-0.111,-0.126l-10.754,-12.35l1.71,-1.421c5.317,-4.415 11.117,-8.293 17.238,-11.527l1.973,-1.042l5.823,11.275l-1.904,1.009c-1.98,1.051 -3.936,2.186 -5.837,3.39l1.937,2.689c4.026,-2.564 8.269,-4.788 12.661,-6.634l-0.065,-0.155l-6.297,-15.073l2.074,-0.816c6.446,-2.536 13.181,-4.413 20.018,-5.578l2.203,-0.376l1.956,12.519l-2.128,0.365c-2.223,0.383 -4.449,0.856 -6.644,1.409l1.025,3.42c3.202,-0.795 9.448,-2.2 14.444,-2.44l-0.932,-16.312l2.114,-0.193c0.503,-0.045 12.435,-1.097 21.201,1.315l1.967,0.542l-2.52,12.492l-1.991,-0.205c-1.98,-0.205 -4.995,-0.475 -7.048,-0.585l-0.055,2.196c3.323,0.34 9.982,1.155 15.371,2.649l4.045,-15.11l2.083,0.492c0.521,0.122 12.839,3.061 19.741,7.799l1.606,1.103l-5.954,11.124l-8.746,-3.804l-1.029,2.521c3.178,1.46 9.552,4.511 13.996,7.466l9.952,-12.796l1.678,1.005c0.294,0.175 7.282,4.409 14.555,13.423l1.266,1.569l-8.371,7.823l-7.037,-5.669l-3.027,3.778c3.149,3.133 5.187,6.093 7.682,9.713c0.027,0.039 0.054,0.078 0.08,0.117l0.106,-0.075l13.367,-9.518l1.274,1.815c3.961,5.642 7.342,11.714 10.046,18.048l0.872,2.041l-11.849,4.743l-0.844,-1.969c-0.878,-2.048 -1.845,-4.08 -2.885,-6.066l-2.875,1.675c2.218,4.202 4.073,8.59 5.539,13.091l15.865,-4.924l0.635,2.12c1.975,6.591 3.26,13.408 3.822,20.263l0.18,2.208l-12.753,0.815l-0.178,-2.133c-0.185,-2.221 -0.458,-4.456 -0.818,-6.665l-3.262,0.681c0.798,4.669 1.198,9.403 1.192,14.126l16.625,0.164l-0.056,2.211c-0.17,6.871 -1.069,13.748 -2.666,20.444l-0.515,2.156l-12.386,-3.121l0.495,-2.084c0.514,-2.168 0.947,-4.374 1.292,-6.582l-3.315,-0.336c-0.721,4.689 -1.842,9.316 -3.348,13.803l0.16,0.054l15.573,5.279l-0.753,2.081c-2.34,6.472 -5.371,12.723 -9.008,18.578l-1.173,1.888l-10.769,-6.82l1.13,-1.824c1.176,-1.901 2.287,-3.862 3.317,-5.855l-3.965,-1.783c-2.446,5.136 -6.54,10.408 -9.563,13.947l12.647,10.69l-1.473,1.661c-4.576,5.164 -9.713,9.872 -15.269,13.993l-1.789,1.326l-7.486,-10.266l1.727,-1.283c1.796,-1.338 3.556,-2.756 5.25,-4.231l-2.328,-2.366c-3.585,3.141 -7.438,5.979 -11.496,8.467l8.624,14.09l-1.924,1.12c-5.982,3.478 -12.35,6.349 -18.929,8.531l-2.12,0.703l-3.853,-12.077l2.046,-0.683c2.133,-0.711 4.255,-1.511 6.333,-2.385l-1.45,-2.977c-4.381,1.887 -8.922,3.407 -13.55,4.532l3.823,16.039l-2.179,0.478c-6.772,1.48 -13.723,2.265 -20.661,2.33l-2.234,0.021l0.089,-12.666l2.159,-0.024c2.25,-0.026 4.514,-0.136 6.757,-0.333l-0.466,-3.273c-4.766,0.431 -9.566,0.459 -14.321,0.087l-0.014,0.166l-1.439,16.253Z" style="fill:#020543;fill-rule:nonzero;"/><g><path d="M165.243,99.549c-5.77,0.602 -9.838,-0.443 -9.838,-0.443c3.598,0.481 7.209,-0.228 10.22,-1.234c1.854,-8.614 2.053,-17.822 -0.751,-27.044c-9.293,2.643 -16.444,1.926 -16.444,1.926c5.777,-0.101 11.221,-2.097 15.617,-4.395c-0.093,-0.257 -0.182,-0.514 -0.282,-0.772c-0.328,-0.858 -0.685,-1.694 -1.064,-2.514c-3.606,2.126 -6.367,2.905 -6.367,2.905c2.269,-0.945 4.243,-2.308 5.929,-3.821c-4.918,-10.011 -13.495,-17.179 -23.136,-22.135c-2.523,6.233 -6.361,9.746 -6.361,9.746c2.718,-3.239 3.897,-7.261 4.371,-10.729c-10.295,-4.903 -21.564,-7.403 -30.778,-8.231c0.5,3.907 -0.324,6.66 -0.324,6.66c0.361,-2.376 -0.187,-4.751 -0.99,-6.768c-0.79,-0.058 -1.56,-0.105 -2.313,-0.139c2.038,5.164 1.247,9.368 1.247,9.368c0.163,-3.707 -1.838,-7.221 -3.459,-9.434c-3.067,-0.045 -5.748,0.123 -7.876,0.466c-6.416,1.035 -12.819,2.675 -18.385,4.35c4.656,4.338 6.544,8.32 6.544,8.32c-2.177,-3.323 -5.492,-5.824 -8.741,-7.646c-1.46,0.46 -2.847,0.914 -4.148,1.354c9.057,4.745 13.028,11.286 13.028,11.286c-4.912,-6.068 -13.79,-8.661 -17.882,-9.573c-3.655,1.346 -5.882,2.291 -5.882,2.291c12.311,1.456 19.086,7.216 22.804,12.818c14.288,-4.816 31.212,-4.9 46.834,3.65c24.645,13.49 20.247,40.323 20.247,40.323c-2.011,19.733 -25.527,48.02 -25.527,48.02c0,0 2.514,2.332 5.102,8.861c2.588,6.529 10.361,7.921 10.361,7.921c-7.901,-3.962 -0.131,-16.667 6.794,-25.129c5.572,-6.81 17.056,-22.1 21.45,-40.258" style="fill:#020543;fill-rule:nonzero;"/><path d="M134.562,72.409c-0.858,-0.799 -1.683,-1.622 -2.611,-2.349c-0.459,-0.368 -0.889,-0.761 -1.352,-1.119l-1.409,-1.059c-0.457,-0.364 -0.959,-0.678 -1.449,-1.006c-0.493,-0.321 -0.963,-0.672 -1.472,-0.972c-1.018,-0.601 -2.023,-1.214 -3.089,-1.735c-1.031,-0.579 -2.134,-1.036 -3.21,-1.534c-1.111,-0.436 -2.21,-0.887 -3.347,-1.258c-1.12,-0.414 -2.284,-0.722 -3.439,-1.042l-1.751,-0.424l-1.77,-0.363c-1.184,-0.221 -2.375,-0.428 -3.577,-0.562c-1.2,-0.161 -2.411,-0.251 -3.619,-0.341c-1.21,-0.087 -2.426,-0.126 -3.642,-0.138c-2.433,-0.016 -4.874,0.078 -7.304,0.314c-1.216,0.109 -2.429,0.25 -3.636,0.436c-1.135,0.169 -2.277,0.351 -3.387,0.596c0.025,1.419 0.047,2.836 0.028,4.256c-0.24,-1.482 -0.44,-2.97 -0.637,-4.455l-0.026,-0.202l0.235,-0.077c2.362,-0.78 4.785,-1.306 7.249,-1.698c1.228,-0.196 2.469,-0.339 3.715,-0.455c1.243,-0.116 2.494,-0.195 3.745,-0.221c1.255,-0.029 2.509,-0.025 3.764,0.027c1.254,0.043 2.508,0.134 3.755,0.288c1.249,0.126 2.49,0.328 3.726,0.545c0.614,0.123 1.231,0.236 1.844,0.371l1.821,0.461c1.199,0.345 2.407,0.682 3.572,1.122c1.186,0.391 2.313,0.907 3.451,1.395c1.104,0.552 2.229,1.065 3.279,1.697c1.079,0.588 2.079,1.282 3.092,1.954c0.974,0.714 1.963,1.419 2.857,2.213l1.346,1.182c0.443,0.398 0.847,0.832 1.263,1.253c0.85,0.827 1.586,1.741 2.351,2.625c0.762,0.887 1.404,1.856 2.089,2.785c-0.837,-0.831 -1.611,-1.699 -2.455,-2.51m-5.22,-7.838c-25.244,-16.508 -48.583,-5.654 -48.583,-5.654l1,8.21c13.987,-2.866 31.446,-2.603 43.985,10.396c13.021,13.501 3.275,36.494 3.275,36.494c8.536,3.541 4.376,10.838 4.376,10.838c11.522,-13.687 18.719,-45.392 -4.053,-60.284" style="fill:#020543;fill-rule:nonzero;"/><path d="M72.29,123.119c0,0 -0.4,-13.788 2.007,-15.988c2.407,-2.199 18.022,-6.618 18.022,-6.618c0,0 -2.256,8.096 -5.458,10.198c-3.202,2.1 -11.626,3.689 -11.626,3.689c0,0 1.747,21.456 -0.607,27.013c-2.354,5.557 -19.846,11.399 -19.846,11.399c0,0 21.734,-0.376 23.141,-2.406c0.104,-0.15 19.305,-34.7 19.764,-36.712c0.496,-2.172 3.394,-5.22 5.479,-5.871c2.085,-0.65 -1.86,7.702 -0.837,11.91c1.023,4.208 13.118,7.564 13.118,7.564c0,0 -6.095,-7.836 -0.929,-18.792c2.66,-5.642 12.962,-6.099 13.658,-8.327c2.046,-6.554 -3.502,-28.844 -26.635,-29.382c-15.674,-0.364 -27.58,17.314 -29.161,24.041c0,0 0.109,-2.757 -2.856,-4.593c-2.654,-1.643 -15.152,-3.671 -15.152,-3.671c0,0 15.856,14.971 14.297,26.076c-1.557,11.104 -8.033,13.208 -8.033,13.208l11.654,-2.738Z" style="fill:#020543;fill-rule:nonzero;"/></g><path d="M113.644,114.991c0,0 -4.056,-12.319 2.796,-19.664c0,0 -4.969,4.75 -2.796,19.664Z" style="fill:#020543;"/></g></svg>